<svg width="1200" height="1600" viewBox="0 0 1200 1600" fill="none" xmlns="http://www.w3.org/2000/svg">
  <rect width="1200" height="1600" fill="#0C0C0C"/>
  <rect x="70" y="70" width="1060" height="1460" rx="40" fill="#151515" stroke="#3A3A3A" stroke-width="2"/>
  <rect x="180" y="140" width="840" height="1020" rx="30" fill="url(#grad1)"/>
  <path d="M310 770C310 555 474 380 690 380C860 380 960 500 960 650C960 860 790 960 620 960C470 960 310 930 310 770Z" fill="url(#grad2)"/>
  <rect x="180" y="1220" width="240" height="28" rx="14" fill="#2D2D2D"/>
  <rect x="180" y="1272" width="330" height="42" rx="21" fill="#575757"/>
  <rect x="180" y="1360" width="210" height="54" rx="27" fill="#F8FAFC"/>
  <text x="244" y="1394" fill="#111111" font-family="Arial, Helvetica, sans-serif" font-size="24" font-weight="700">VIEW</text>
  <text x="180" y="1202" fill="#FFFFFF" font-family="Arial, Helvetica, sans-serif" font-size="62" font-weight="700">PRINCE</text>
  <circle cx="430" cy="540" r="120" fill="#F3F4F6" fill-opacity="0.16"/>
  <circle cx="780" cy="760" r="140" fill="#D1D5DB" fill-opacity="0.14"/>
  <defs>
    <linearGradient id="grad1" x1="180" y1="140" x2="1020" y2="1160" gradientUnits="userSpaceOnUse">
      <stop stop-color="#2D2D2D"/>
      <stop offset="0.45" stop-color="#1B1B1B"/>
      <stop offset="1" stop-color="#575757"/>
    </linearGradient>
    <linearGradient id="grad2" x1="330" y1="400" x2="900" y2="940" gradientUnits="userSpaceOnUse">
      <stop stop-color="#9CA3AF"/>
      <stop offset="0.5" stop-color="#E5E7EB"/>
      <stop offset="1" stop-color="#575757"/>
    </linearGradient>
  </defs>
</svg>
